# xmcd
#
# Track frame offsets:
# 183
# 10583
# 21163
# 31758
# 42093
# 54350
# 65785
# 76760
# 87393
# 98880
# 109408
# 122663
# 133883
# 145448
# 155505
# 168700
# 179578
# 191460
# 203658
# 217043
#
# Disc length: 3057 seconds
#
#
# Revision: 1
# Processed by: cddbd v1.5.1PL2 Copyright (c) Steve Scherf et al.
# Submitted via: FreeRIP 2.35 
#
DISCID=1b0bef14
DTITLE=Various Artist - Cadillac Boppin' Oldies Vol. 1
DYEAR=1900
DGENRE=Popcorn oldies
TTITLE0=Walter Jackson - This World Of Mine
TTITLE1=Les Baxter - Ooch I Baba
TTITLE2=HB Barnum - It Hurts Too Much To Cry
TTITLE3=Douglas Banks - Ain't That Just Like A Woman
TTITLE4=Kurt Harris - Emperor Of My Baby's Heart
TTITLE5=Liz Verdi - Think It Over
TTITLE6=Jack Laforge - Cleopatra Kick
TTITLE7=The Marvelows - Your Little Sister
TTITLE8=Nick Charles - The Right Girl
TTITLE9=Johnny Payne - Thinklin Bells
TTITLE10=Jimmy Merritt - Lonely Battle
TTITLE11=Edmundo Ross - Summrtime
TTITLE12=Helen Grayco - Lily's Lament
TTITLE13=Johnny Nash - I'm Leaving
TTITLE14=Pail Siindab - I Was A Fool
TTITLE15=Dav Kipp - Yeah My Baby Loves Me
TTITLE16=Ozzie Torens - Ozzaboo
TTITLE17=South Central Blues Band - The Soul Of Bonnie And Clyde
TTITLE18=Willie Bobo - Trinidad
TTITLE19=Herbie Goins - Thirty-Six-Twenty-Two-Thirty-Six
EXTD=
EXTT0=
EXTT1=
EXTT2=
EXTT3=
EXTT4=
EXTT5=
EXTT6=
EXTT7=
EXTT8=
EXTT9=
EXTT10=
EXTT11=
EXTT12=
EXTT13=
EXTT14=
EXTT15=
EXTT16=
EXTT17=
EXTT18=
EXTT19=
PLAYORDER=
